<?xml version="1.0" encoding="utf-8"?>
<!-- Generator: Adobe Illustrator 24.1.0, SVG Export Plug-In . SVG Version: 6.00 Build 0)  -->
<svg version="1.1" id="Layer_1" xmlns="http://www.w3.org/2000/svg" xmlns:xlink="http://www.w3.org/1999/xlink" x="0px" y="0px"
	 viewBox="0 0 80 80" style="enable-background:new 0 0 80 80;" xml:space="preserve">
<style type="text/css">
	.st0{fill:none;}
	.st1{fill:#000000;}
</style>
<rect class="st0" width="80" height="80"/>
<path class="st1" d="M74.7,45.8l-0.9-7.3c0-0.4-0.1-0.9-0.4-1.2l-3.7-3.4l-0.9-3.1c0.1,0.2,0.2,0.4,0.4,0.5c0.8,0,1.5,0,2.3-0.1
	c0.7-0.1,1.4-0.3,1.9-0.8c0.3-0.6,0.5-1.4,0.3-2.1c-0.2-1.2-2.7-1.6-2.7-1.6s-2.4-0.2-3-0.2s-0.3,0.8-0.3,0.8
	c-0.2,0.6-0.4,1.2-0.4,1.8c-1.6-3.1-3.5-5.9-5.8-8.5c-1-1.1-2.3-2-3.8-2.6c0,0-0.7-0.8-13.7-0.8s-14.5,0.8-14.5,0.8
	c-0.5,0.2-0.9,0.4-1.3,0.7c-5-4.5-12.6-4-17.1,0.9c-4,4.5-4.1,11.3-0.2,15.9l-7.9,8.2c-0.3,0.4-0.3,0.9,0,1.3
	c0.3,0.3,0.7,0.3,1.1,0.1l0.1-0.1l7.9-8.1c0.5,0.4,1,0.8,1.5,1.1c-0.1,0.2-0.1,0.5-0.1,0.8l-0.9,7.4c-0.1,0.2-0.2,0.5-0.2,0.8
	c0,0.5,0.7,13.5,1,15.1c0,0.9,0.5,1.7,1.4,2l7.2,0.2c0.4-0.3,0.7-0.6,0.9-1c0.2-0.6,0.3-1.2,0.4-1.8l4.2,0.3l0.6-0.6l3.9,0.1
	l0.6,0.7l11-0.2l11,0.2l0.6-0.7l3.9-0.1l0.6,0.6l4.3-0.3c0.1,0.6,0.2,1.2,0.4,1.8c0.2,0.4,0.5,0.7,0.9,1l7.2-0.2
	c0.9-0.3,1.4-1.1,1.4-2c0.3-1.6,1-14.6,1-15.1C74.9,46.3,74.9,46,74.7,45.8z M43.9,18.8c0.1,0,11.5,0.2,14.8,0.9
	c2.5,2.7,4.6,5.8,6.1,9.1c0,0-5.8,1.2-19.5,1.2h-2.7c-4.2,0-7.6-0.2-10.4-0.3c0.1-0.8,0.2-1.5,0.2-2.3c0-2.8-1-5.6-2.8-7.8
	C33.2,19,43.8,18.8,43.9,18.8z M63.1,46.6c-0.7,0.6-1.6,0.9-2.5,1l-15,1.7c-1.2,0.1-2.3,0.1-3.5,0l-15.1-2c-0.9-0.1-1.7-0.4-2.4-0.8
	c-0.4-0.3,0.1-0.5,1.1-0.5l10.8,0.9c1.2,0.1,2.3,0.4,3.4,0.7l2.4,0.8c1.1,0.3,2.2,0.3,3.3,0l2.4-0.8c1.1-0.3,2.3-0.6,3.4-0.7L62,46
	C63,45.9,63.5,46.2,63.1,46.6z M63.5,55.6c-6.6,0.8-13.3,1.2-19.9,1.1c-6.4,0.1-12.8-0.3-19.2-1c0.5-0.5,1.1-0.8,1.8-0.9
	c0.8-0.2,1.6-0.3,2.4-0.3c0,0,0.1,0,0.1,0h30.5c0,0,0.1,0,0.1,0c0.8,0,1.6,0.1,2.4,0.3C62.4,54.8,63,55.1,63.5,55.6z M40.4,44.3
	c0-1.2,1.5-2.2,3.4-2.2c1.9,0,3.4,1,3.4,2.2c0,1.2-1.5,2.2-3.4,2.2C42,46.5,40.4,45.5,40.4,44.3z M9.9,27.4
	c0-5.7,4.6-10.3,10.3-10.3s10.3,4.6,10.3,10.3s-4.6,10.3-10.3,10.3S9.9,33.1,9.9,27.4L9.9,27.4z M16.9,52.6l-2,3.3
	c-0.5,0.8-0.8,0.7-0.7-0.2l0.8-6.9c0.1-1,0.6-1.1,1.1-0.3l0.7,1.1C17.3,50.5,17.4,51.7,16.9,52.6z M18,40.3v-1.1
	c0.8,0.2,1.6,0.3,2.4,0.3c1.7,0,3.4-0.4,4.9-1.1l4.6,1.5c0.9,0.3,0.9,0.7,0,1l-0.2,0.5c-1.1,0.4-2.3,0.7-3.5,0.9h-4.4
	c-0.9-0.1-1.8-0.2-2.7-0.1C18.3,42.4,18,41.3,18,40.3z M63.5,58.2c-0.6,0-10.7,1.2-17.2,1.2h-4.5c-6.5,0-16.6-1.2-17.2-1.2
	c-0.6,0-2.9-0.1-2.9-0.5c0.4-0.5,1-1,1.6-1.3c6.8,0.8,13.5,1.2,20.3,1.1c7,0.1,14.1-0.4,21.1-1.2c0.7,0.3,1.3,0.8,1.8,1.4
	C66.4,58.1,64.1,58.2,63.5,58.2z M68.9,40.3c0,1-0.6,2.1-1.2,1.9c-1-0.1-2,0-3,0.1h-4.4c-1.2-0.2-2.4-0.5-3.5-0.9l-0.2-0.2
	c-0.9-0.2-1-0.8,0-1.1l5.7-1.9c1.1-0.4,2-1.1,2.6-2.1l1.3-2.1c0.5-0.8,1.2-0.8,1.6,0.1l0.3,0.4c0.5,1.1,0.8,2.2,0.9,3.4V40.3z
	 M72.4,55.9l-2-3.3c-0.5-0.9-0.5-2.1,0.1-3l0.7-1.1c0.5-0.8,1.1-0.7,1.2,0.3l0.8,6.9C73.2,56.7,72.9,56.7,72.4,55.9z M16.6,20.9
	c-1.9,0.8-3.2,2.6-3.3,4.6c0,0.5,0.3,0.9,0.8,0.9l0,0c0.5,0,0.9-0.3,0.9-0.8c0.1-1.4,0.9-2.6,2.2-3.1c0.4-0.2,0.6-0.8,0.4-1.2
	C17.4,20.9,16.9,20.7,16.6,20.9L16.6,20.9z"/>
</svg>
